<?xml version="1.0" encoding="utf-8"?>
<!-- Generator: Adobe Illustrator 21.0.0, SVG Export Plug-In . SVG Version: 6.00 Build 0)  -->
<svg version="1.1" id="Camada_1" xmlns="http://www.w3.org/2000/svg" xmlns:xlink="http://www.w3.org/1999/xlink" x="0px" y="0px"
	 viewBox="0 0 169.5 170" style="enable-background:new 0 0 169.5 170;" xml:space="preserve">
<style type="text/css">
	.st0{fill:#fff;}
</style>
<g>
	<path class="st0" d="M81,2.1C37.1,4.2,2.5,40.7,2.7,84.6c0,13.4,3.3,26,9,37.1l-8.7,42.4c-0.5,2.3,1.6,4.3,3.9,3.8l41.6-9.8
		c10.7,5.3,22.7,8.4,35.4,8.6c44.8,0.7,82.2-34.9,83.6-79.7C168.8,39,129.1-0.2,81,2.1z M130.6,129.9
		c-12.2,12.2-28.4,18.9-45.6,18.9c-10.1,0-19.7-2.3-28.7-6.7l-5.8-2.9l-25.5,6l5.4-26l-2.9-5.6c-4.6-9.1-7-18.9-7-29.3
		c0-17.2,6.7-33.4,18.9-45.6C51.5,26.7,67.9,19.9,85,19.9c17.2,0,33.4,6.7,45.6,18.9c12.2,12.2,18.9,28.4,18.9,45.6
		C149.4,101.4,142.6,117.9,130.6,129.9z"/>
	<path class="st0" d="M124.9,102.2L109,97.6c-2.1-0.6-4.4,0-5.9,1.5l-3.9,4c-1.6,1.7-4.1,2.2-6.3,1.3c-7.5-3.1-23.4-17.2-27.5-24.2
		c-1.2-2-1-4.6,0.5-6.4l3.4-4.4c1.3-1.7,1.6-4,0.7-6l-6.7-15.2c-1.6-3.6-6.3-4.7-9.3-2.1c-4.5,3.8-9.7,9.5-10.4,15.8
		c-1.1,11.2,3.7,25.3,21.8,42.2c20.9,19.5,37.7,22.1,48.6,19.5c6.2-1.5,11.1-7.5,14.3-12.4C130.4,107.7,128.8,103.3,124.9,102.2z"/>
</g>
</svg>
